<svg xmlns="http://www.w3.org/2000/svg" version="1.1" xmlns:xlink="http://www.w3.org/1999/xlink" width="1500" height="150" viewBox="0 0 1500 150"><svg xml:space="preserve" width="1500" height="150" data-version="2" data-id="lg_BG2tq4CQiBJW9CxeKx" viewBox="0 0 534 150" x="0" y="0"><rect width="100%" height="100%" fill="transparent"></rect><rect width="201.73" height="201.73" x="-100.86" y="-100.86" fill="#c0c9fa" rx="13" ry="13" transform="translate(78.2 75)scale(.7281)"></rect><path fill="#3e58bc" d="M175.65 104.28q-1.39 0-2.41-.98-1.03-.99-1.03-2.45V47.27h6.87v53.58q0 1.46-.95 2.45-.95.98-2.48.98m-19.79-50.73q-1.38 0-2.26-.88-.88-.87-.88-2.26 0-1.39.88-2.26.88-.88 2.26-.88h39.57q1.46 0 2.33.88.88.87.88 2.26 0 1.39-.88 2.26-.87.88-2.33.88Z" paint-order="stroke"></path><rect width="45.92" height="57.01" x="-22.96" y="-28.5" fill="none" rx="0" ry="0" transform="translate(176.18 76.28)"></rect><path fill="#3e58bc" d="M210.47 104.28q-1.46 0-2.45-.98-.98-.99-.98-2.45V50.7q0-1.53.98-2.48.99-.95 2.45-.95 1.53 0 2.48.95t.95 2.48v50.15q0 1.46-.95 2.45-.95.98-2.48.98" paint-order="stroke"></path><rect width="6.86" height="57.01" x="-3.43" y="-28.5" fill="none" rx="0" ry="0" transform="translate(210.97 76.28)"></rect><path fill="#3e58bc" d="M231.86 104.28q-1.46 0-2.41-.98-.95-.99-.95-2.45V50.7q0-1.53.95-2.48t2.41-.95q1.6 0 2.7 1.24l32.99 43.73V50.7q0-1.53.99-2.48.98-.95 2.44-.95t2.41.95q.95.95.95 2.48v50.15q0 1.46-.95 2.45-.95.98-2.41.98-.73 0-1.46-.29t-1.16-.87l-33.07-43.73v41.46q0 1.46-.95 2.45-.95.98-2.48.98" paint-order="stroke"></path><rect width="45.84" height="57.01" x="-22.92" y="-28.5" fill="none" rx="0" ry="0" transform="translate(251.92 76.28)"></rect><path fill="#3e58bc" d="M305.73 104.28q-1.39 0-2.37-.98-.99-.99-.99-2.45V83.33L282.74 52.6q-.88-1.31-.66-2.55.22-1.25 1.13-2.01.91-.77 2.23-.77 1.09 0 1.75.48.66.47 1.24 1.35l18.98 30.29h-2.99l19.12-30.44q.59-.8 1.32-1.24.73-.44 1.75-.44 1.24 0 2.04.84.81.84.95 2.05.15 1.2-.65 2.44l-19.79 30.73v17.52q0 1.46-.98 2.45-.99.98-2.45.98" paint-order="stroke"></path><rect width="47.72" height="57.01" x="-23.86" y="-28.5" fill="none" rx="0" ry="0" transform="translate(306.32 76.28)"></rect><path fill="#3e58bc" d="M353.98 104.28q-1.38 0-2.4-.98-1.03-.99-1.03-2.45V47.27h6.87v53.58q0 1.46-.95 2.45-.95.98-2.49.98M334.2 53.55q-1.39 0-2.26-.88-.88-.87-.88-2.26 0-1.39.88-2.26.87-.88 2.26-.88h39.57q1.46 0 2.33.88.88.87.88 2.26 0 1.39-.88 2.26-.87.88-2.33.88Z" paint-order="stroke"></path><rect width="45.92" height="57.01" x="-22.96" y="-28.5" fill="none" rx="0" ry="0" transform="translate(354.52 76.28)"></rect><path fill="#3e58bc" d="M408.08 105.01q-6.43 0-11.76-2.15-5.32-2.15-9.16-6.09-3.83-3.95-5.98-9.28-2.16-5.32-2.16-11.75 0-6.35 2.16-11.68 2.15-5.33 5.98-9.27 3.84-3.94 9.16-6.09 5.33-2.16 11.76-2.16 6.35 0 11.68 2.16 5.33 2.15 9.2 6.09 3.86 3.94 6.02 9.27 2.15 5.33 2.15 11.68 0 6.43-2.15 11.75-2.16 5.33-6.02 9.28-3.87 3.94-9.2 6.09-5.33 2.15-11.68 2.15m0-6.27q4.89 0 8.98-1.76 4.08-1.75 7.11-4.85 3.03-3.1 4.68-7.3 1.64-4.2 1.64-9.09t-1.64-9.05q-1.65-4.16-4.68-7.3-3.03-3.14-7.11-4.85-4.09-1.72-8.98-1.72-4.89 0-8.98 1.72-4.09 1.71-7.08 4.85-3 3.14-4.67 7.3-1.68 4.16-1.68 9.05 0 4.89 1.68 9.09 1.67 4.2 4.67 7.3 2.99 3.1 7.08 4.85 4.09 1.76 8.98 1.76" paint-order="stroke"></path><rect width="58.11" height="58.47" x="-29.05" y="-29.23" fill="none" rx="0" ry="0" transform="translate(408.57 76.28)"></rect><path fill="#3e58bc" d="M461.29 104.28q-1.38 0-2.4-.98-1.03-.99-1.03-2.45V47.27h6.87v53.58q0 1.46-.95 2.45-.95.98-2.49.98m-19.78-50.73q-1.39 0-2.26-.88-.88-.87-.88-2.26 0-1.39.88-2.26.87-.88 2.26-.88h39.57q1.46 0 2.33.88.88.87.88 2.26 0 1.39-.88 2.26-.87.88-2.33.88Z" paint-order="stroke"></path><rect width="45.92" height="57.01" x="-22.96" y="-28.5" fill="none" rx="0" ry="0" transform="translate(461.83 76.28)"></rect><path fill="#3e58bc" d="M508.38 105.01q-4.67 0-8.8-1.42-4.12-1.42-7.19-3.98-3.06-2.55-4.52-5.98-.73-1.39-.04-2.56.69-1.17 2.3-1.53 1.24-.29 2.41.33 1.17.62 1.75 1.86.95 1.97 2.99 3.54 2.05 1.57 4.93 2.52t6.17.95q3.65 0 6.61-1.17 2.95-1.17 4.74-3.4 1.79-2.22 1.79-5.43 0-4.09-3.14-7.23-3.14-3.14-10.07-3.94-8.84-.95-13.87-5.33-5.04-4.38-5.04-10.81 0-4.67 2.55-7.99 2.56-3.32 7.01-5.07 4.46-1.76 10.08-1.76 4.23 0 7.55 1.25 3.32 1.24 5.77 3.39 2.44 2.15 4.2 4.93.87 1.46.69 2.74-.18 1.27-1.35 2-1.31.73-2.74.29-1.42-.43-2.15-1.67-1.1-1.98-2.78-3.44-1.67-1.46-3.97-2.33-2.3-.88-5.44-.88-5.55-.07-9.13 2.16-3.57 2.22-3.57 6.68 0 2.33 1.2 4.34t4.23 3.5q3.03 1.5 8.51 2.16 8.83 1.02 13.5 5.36 4.68 4.35 4.68 11.43 0 4.08-1.57 7.15-1.57 3.07-4.35 5.15-2.77 2.08-6.38 3.14-3.62 1.05-7.56 1.05" paint-order="stroke"></path><rect width="40.92" height="58.4" x="-20.46" y="-29.2" fill="none" rx="0" ry="0" transform="translate(508.28 76.31)"></rect><path fill="#3e58bc" d="M93.758 101.822q-1.046 1.046-2.567 1.068-1.513.028-2.616-1.075L48.092 61.334l5.183-5.183 40.483 40.48q1.103 1.104 1.124 2.567.036 1.464-1.124 2.624m-53.28-23.383q-1.047 1.046-2.37 1.04-1.329 0-2.375-1.047t-1.047-2.376q0-1.315 1.046-2.362l29.896-29.897q1.103-1.103 2.426-1.11 1.322.007 2.369 1.053t1.053 2.37q0 1.329-1.103 2.432Z" paint-order="stroke"></path><rect width="49.06" height="60.92" x="-24.53" y="-30.46" fill="none" rx="0" ry="0" transform="rotate(-45 133.37 -47.93)"></rect><path fill="#fff" d="M96.863 98.72q-1.054 1.054-2.567 1.083t-2.616-1.075L51.19 58.24l5.183-5.183 40.49 40.488q1.103 1.103 1.131 2.56.021 1.463-1.131 2.616M43.582 75.339q-1.047 1.046-2.369 1.053-1.33 0-2.376-1.046t-1.046-2.376q0-1.33 1.046-2.376l29.889-29.89q1.103-1.103 2.432-1.103t2.376 1.046q1.047 1.047 1.047 2.376-.007 1.323-1.11 2.426Z" paint-order="stroke"></path><rect width="49.07" height="60.92" x="-24.54" y="-30.46" fill="none" rx="0" ry="0" transform="rotate(-45 131.18 -53.23)"></rect></svg></svg>