<svg xmlns="http://www.w3.org/2000/svg" version="1.1" xmlns:xlink="http://www.w3.org/1999/xlink" width="1500" height="108" viewBox="0 0 1500 108"><svg xml:space="preserve" width="1500" height="108" data-version="2" data-id="lg_HH3oTridCwnOrYpLrq" viewBox="0 0 568 108" x="0" y="0"><rect width="100%" height="100%" fill="transparent"></rect><path fill="#5771ff" d="M149.91 83.53h-17.55V18.59h17.55zm22.04-62.8h-61.53V5.42h61.53zm29.96 62.8h-17.12V24.9h17.12zm0-46.01h-24.93V24.9h24.93zm-10.49-18.4q-4.81 0-7.11-2.51-2.3-2.52-2.3-6.37 0-3.96 2.3-6.47 2.3-2.52 7.11-2.52 4.82 0 7.12 2.52 2.3 2.51 2.3 6.47 0 3.85-2.3 6.37-2.3 2.51-7.12 2.51m43.44 64.41h-17.12V24.9h13.59v25.14h-.96q0-8.98 2.3-14.98 2.3-5.99 7.01-8.98 4.71-3 11.45-3h.75q10.27 0 15.67 6.69 5.41 6.68 5.41 20.27v33.49h-17.12V49.08q0-4.71-2.79-7.7-2.78-3-7.49-3-4.81 0-7.75 3.05-2.95 3.05-2.95 7.97zm62.49 23.22h-10.48V92.2h12.19q2.79 0 4.71-.69 1.93-.7 3.11-2.3 1.17-1.61 1.92-4.39l14.45-59.92h16.26l-16.37 63.34q-1.71 6.85-4.76 10.92-3.05 4.06-8.13 5.83-5.09 1.76-12.9 1.76m20.33-24.5h-12.41V68.88h12.41zm-3.21 0h-16.26L280.23 24.9h17.23zm68.91 2.03h-8.24q-8.88 0-14.34-2.19-5.45-2.19-7.97-7.38-2.51-5.19-2.51-14.07V9.06h15.94v52.22q0 4.17 2.19 6.36 2.2 2.2 6.26 2.2h8.67zm0-46.86h-41.94V24.9h41.94zm40.13 48.15q-7.71 0-13.7-2.41-5.99-2.41-10.11-6.58-4.12-4.17-6.26-9.58-2.14-5.4-2.14-11.39v-2.46q0-6.1 2.19-11.61 2.2-5.51 6.42-9.69 4.23-4.17 10.22-6.58 5.99-2.4 13.38-2.4 7.59 0 13.53 2.4 5.94 2.41 10.11 6.58 4.18 4.18 6.42 9.69 2.25 5.51 2.25 11.61v2.46q0 5.99-2.14 11.39-2.14 5.41-6.26 9.58-4.12 4.17-10.11 6.58-5.99 2.41-13.8 2.41m0-14.45q5.02 0 8.34-2.14 3.32-2.14 5.08-5.99 1.77-3.85 1.77-8.56 0-5.03-1.82-8.83t-5.19-6.04q-3.37-2.25-8.18-2.25-4.71 0-8.14 2.25-3.42 2.24-5.19 6.04-1.76 3.8-1.76 8.83 0 4.71 1.71 8.56 1.71 3.85 5.14 5.99 3.42 2.14 8.24 2.14m79.18 13.16h-8.24q-8.88 0-14.34-2.19-5.46-2.19-7.97-7.38-2.52-5.19-2.52-14.07V9.06h15.95v52.22q0 4.17 2.19 6.36 2.19 2.2 6.26 2.2h8.67zm0-46.86h-41.95V24.9h41.95zm33.81 47.93q-12.52 0-19.58-5.13-7.07-5.14-7.49-14.45h15.19q.43 2.78 3.37 4.98 2.94 2.19 8.83 2.19 4.49 0 7.44-1.55 2.94-1.55 2.94-4.44 0-2.57-2.25-4.12-2.25-1.55-8.02-2.19l-4.61-.43q-10.59-1.07-15.88-5.89-5.3-4.81-5.3-12.3 0-6.21 3.1-10.38 3.1-4.17 8.62-6.31 5.51-2.14 12.57-2.14 11.34 0 18.29 4.97 6.96 4.98 7.28 14.39h-15.19q-.43-2.89-3-4.87-2.57-1.97-7.6-1.97-3.96 0-6.31 1.49-2.35 1.5-2.35 4.07 0 2.46 2.03 3.74 2.03 1.29 6.63 1.82l4.6.43q10.81 1.18 16.8 5.99 6 4.82 6 12.95 0 5.89-3.21 10.22-3.21 4.33-9.1 6.63-5.88 2.3-13.8 2.3" paint-order="stroke"></path><path fill="#5771ff" d="M41.953 13.24c-20.193 0-36.562 16.369-36.562 36.562S21.76 86.365 41.953 86.365s36.563-16.37 36.563-36.563S62.146 13.24 41.953 13.24m0 66.787c-16.656 0-30.225-13.569-30.225-30.225s13.569-30.225 30.225-30.225 30.225 13.569 30.225 30.225-13.569 30.225-30.225 30.225"></path><path fill="#5771ff" d="M52.92 59.78a15.925 15.925 0 0 1-10.969 4.356 15.925 15.925 0 0 1-10.969-4.355 3.17 3.17 0 0 0-4.347 4.615 22.263 22.263 0 0 0 15.316 6.077 22.263 22.263 0 0 0 15.316-6.078 3.17 3.17 0 0 0-4.347-4.614M27.088 41.3a3.616 3.616 0 0 1 5.582 0l.04.033q.163.187.383.308l.203.066q.113.048.243.08l.082-.007.073.016.081-.033a1.3 1.3 0 0 0 1.04-.625l.081-.228.082-.243c.47-3.811-3.031-7.313-6.834-6.826a1.292 1.292 0 0 0 .317 2.552c1.22-.147 2.373.406 3.12 1.3-2.315-.626-4.98.032-6.532 2.023A1.292 1.292 0 0 0 27.08 41.3m25.26-3.601a3.494 3.494 0 0 1 3.113-1.3 1.292 1.292 0 0 0 .325-2.551c-3.811-.48-7.313 3.022-6.833 6.825q.016.08.056.162.033.163.098.309a1.284 1.284 0 0 0 2.145.162 3.616 3.616 0 0 1 5.59 0 1.288 1.288 0 0 0 2.031-1.584c-1.544-1.99-4.209-2.649-6.524-2.023"></path></svg></svg>